<svg xmlns="http://www.w3.org/2000/svg" viewBox="0 0 733.17 302.5"><defs><style>.cls-1{fill:#fff;}</style></defs><title>logo_3</title><g id="Layer_2" data-name="Layer 2"><g id="Layer_1-2" data-name="Layer 1"><path class="cls-1" d="M406.64,67.26c-31.07,0-50.93,7.1-60.72,21.73-6.27,9.51-9.32,28-9.32,56.51v3.66c0,28.52,3,47,9.35,56.56,9.77,14.49,29.62,21.54,60.69,21.54,15.42,0,27.63-2.11,36.88-6.4a3.33,3.33,0,0,1,4.7,3h0a3.35,3.35,0,0,0,3.35,3.35h21.91a3.34,3.34,0,0,0,3.34-3.35V138c-.1-23.58-3.15-39.57-9.33-48.89C457.72,74.41,437.81,67.26,406.64,67.26Zm37,122.5c-5.21,7.87-25.41,9-37,9s-31.69-1.18-37-9c-1.67-2.54-4.46-11.2-4.46-40.62V145.5c0-29.39,2.86-38,4.59-40.6,5.21-7.86,25.32-9,36.85-9,27,0,34.76,5.67,37,9,1.71,2.59,4.59,11,4.59,38v8.79C448.22,178.77,445.34,187.17,443.63,189.76Z"/><path class="cls-1" d="M527.61,86.18h0c-6.28,9.42-9.33,27.87-9.33,56.39v81.49a3.34,3.34,0,0,0,3.34,3.34h21.77a3.34,3.34,0,0,0,3.35-3.34V142.57c0-29.39,2.86-38,4.56-40.56,5.33-7.9,25.48-9.08,37-9.08h20.55a3.34,3.34,0,0,0,3.34-3.34V67.82a3.34,3.34,0,0,0-3.34-3.35H588.31C557.24,64.47,537.38,71.57,527.61,86.18Z"/><path class="cls-1" d="M718.79,200.27c-11.52,0-31.64-1.18-36.84-9-1.72-2.59-4.59-11.36-4.59-40.9V99.21a3.34,3.34,0,0,1,3.34-3.35h46.78a3.34,3.34,0,0,0,3.34-3.34V70.6a3.34,3.34,0,0,0-3.34-3.34H680.7a3.34,3.34,0,0,1-3.34-3.35V5A3.35,3.35,0,0,0,674,1.63H652.1A3.35,3.35,0,0,0,648.75,5V150.33c0,28.72,3.06,47.26,9.34,56.69,9.77,14.6,29.63,21.7,60.7,21.7h11a3.35,3.35,0,0,0,3.35-3.34V203.61a3.34,3.34,0,0,0-3.35-3.34Z"/><ellipse class="cls-1" cx="243.12" cy="274.5" rx="28.03" ry="27.96" transform="translate(-122.91 252.63) rotate(-45.05)"/><ellipse class="cls-1" cx="154.88" cy="274.5" rx="28.03" ry="27.96" transform="translate(-148.81 190.18) rotate(-45.05)"/><path class="cls-1" d="M467,0H10.05A10.05,10.05,0,0,0,0,10.05V29.43A10.1,10.1,0,0,0,10.07,39.5H46.35C57.2,96.33,76.24,194.42,76.24,194.42a42.87,42.87,0,0,0,41.56,34H293.35a10.05,10.05,0,0,0,10-10.05V197.57a10.07,10.07,0,0,0-10.07-10.07H234.11L237,154h41.9a5.07,5.07,0,0,0,5.06-5.06v-9.88a5.06,5.06,0,0,0-5.06-5.06H238.79l3.41-39h36.74A5.07,5.07,0,0,0,284,89.94V80.06A5.06,5.06,0,0,0,278.94,75H244l3.11-35.5H466.93A10.1,10.1,0,0,0,477,29.43V10.05A10.05,10.05,0,0,0,467,0ZM93,39.5h50.94L147.05,75H97.54L91,41.5C90.77,40.28,91.76,39.5,93,39.5ZM101.45,95H148.8l3.41,39H109.07ZM116,169.5,113,154h41l2.93,33.5H138C127.86,187.5,118.19,179.73,116,169.5Zm98,18H177L174,154H217Zm4.68-53.5H172.29l-3.41-39h53.24Zm5.16-59H167.13L164,39.5h63Z"/></g></g></svg>